<svg id="Layer_1" data-name="Layer 1" xmlns="http://www.w3.org/2000/svg" viewBox="0 0 48 48"><defs><style>.cls-1{fill:#364929;}.cls-2{fill:#fff;}</style></defs><title>icon-instagram</title><rect class="cls-1" width="48" height="48"/><path class="cls-2" d="M91.8916,79.9141H73.4873a5.80234,5.80234,0,0,0-5.7969,5.7969v18.4062a5.80234,5.80234,0,0,0,5.7969,5.7969H91.8916a5.804,5.804,0,0,0,5.7988-5.7969V85.711A5.804,5.804,0,0,0,91.8916,79.9141Zm1.6641,3.459.6621-.0039v5.084l-5.0664.0175-.0176-5.0839ZM78.4092,91.836a5.269,5.269,0,1,1-1,3.0781A5.27591,5.27591,0,0,1,78.4092,91.836Zm16.3593,12.2812a2.879,2.879,0,0,1-2.8769,2.875H73.4873a2.8774,2.8774,0,0,1-2.875-2.875V91.836h4.4785a8.20406,8.20406,0,1,0,15.1973,0h4.4804Z" transform="translate(-58.6904 -70.9141)"/></svg>