<svg id="Layer_1" data-name="Layer 1" xmlns="http://www.w3.org/2000/svg" viewBox="0 0 24 29.99897"><defs><style>.cls-1{fill:#fff;}</style></defs><title>icon-pinterest</title><path class="cls-1" d="M299.84119,411.321a.23967.23967,0,0,0,.4238.0996,18.23476,18.23476,0,0,0,3.2152-5.6387c.218-.7676,1.2514-4.7363,1.2514-4.7363a5.15492,5.15492,0,0,0,4.3515,2.1465c5.724,0,9.60731-5.0488,9.60731-11.8087,0-5.1113-4.47471-9.8711-11.27451-9.8711-8.4588,0-12.72549,5.8692-12.72549,10.7637,0,2.9629,1.16049,5.5996,3.64509,6.584a.61672.61672,0,0,0,.8921-.4316c.08281-.3028.2765-1.0645.3653-1.3848a.82027.82027,0,0,0-.2563-.959,4.86418,4.86418,0,0,1-1.1767-3.3789c0-4.3555,3.3686-8.2539,8.7677-8.2539,4.7813,0,7.4092,2.8281,7.4092,6.6035,0,4.9688-2.2726,9.1622-5.6432,9.1622a2.69429,2.69429,0,0,1-2.8136-3.3184c.5369-2.1836,1.5743-4.5391,1.5743-6.1153a2.337,2.337,0,0,0-2.4018-2.5859c-1.9053,0-3.4352,1.9062-3.4352,4.459a6.45283,6.45283,0,0,0,.5692,2.7285s-1.9497,7.9883-2.2908,9.3887A18.739,18.739,0,0,0,299.84119,411.321Z" transform="translate(-294.6904 -381.5123)"/></svg>