<svg id="Layer_1" data-name="Layer 1" xmlns="http://www.w3.org/2000/svg" viewBox="0 0 48 48"><defs><style>.cls-1{fill:#364929;}.cls-2{fill:#fff;}</style></defs><title>icon-linkedin</title><rect class="cls-1" width="48" height="48"/><rect class="cls-2" x="9" y="19" width="7" height="20"/><path class="cls-2" d="M71.1904,86.9141a3.5,3.5,0,1,0-3.5-3.5005A3.5021,3.5021,0,0,0,71.1904,86.9141Z" transform="translate(-58.6904 -70.9141)"/><path class="cls-2" d="M97.6904,98.9229c0-5.3969-1.16412-9.0088-7.45512-9.0088-3.0234,0-5.0527,1.1233-5.8828,2.6992h-.0859V89.9141H78.6904v20h5.82808v-9.9133c0-2.6137.4942-5.1454,3.7285-5.1454,3.1856,0,3.44342,2.9895,3.44342,5.3137v9.745h6Z" transform="translate(-58.6904 -70.9141)"/></svg>