<svg xmlns="http://www.w3.org/2000/svg" viewBox="0 0 520 512"><defs><style>.cls-1{fill:#21b0f4;}</style></defs><title>logo-github</title><g id="github_blue"><path class="cls-1" d="M488.6332,261.56472C488.6332,135.29405,386.27068,32.93153,260,32.93153S31.3668,135.29405,31.3668,261.56472c0,100.22331,64.492,185.37472,154.2368,216.24449,5.47131-3.9474,11.77156-8.81848,11.77156-17.024,0-12.57459-.27216-44.92307-.27216-44.92307a158.5714,158.5714,0,0,1-24.08623,1.69006c-35.68785,0-46.97189-22.64688-52.34251-35.32259-6.99012-16.50714-16.05366-24.259-25.68373-30.45606-5.91429-3.80824-7.27344-8.29314-.43051-9.57718,31.58653-5.91537,39.66441,35.62747,60.76,42.25255,15.05694,4.7215,34.41886,2.68146,44.04893-3.5156,1.26909-12.68677,10.46866-23.66136,18.12719-29.44147-53.65635-5.12632-85.46963-23.66136-101.96539-53.45215l-1.76745-3.33514-4.14619-9.46446-1.22367-3.39172c-5.16642-15.12067-7.455-32.43876-7.455-51.78464,0-34.34288,10.763-47.30029,25.20814-65.60978-11.04624-39.154,3.96529-65.91392,3.96529-65.91392s23.22555-4.7887,67.12729,26.4782c23.79186-10.14057,87.23708-10.98565,117.26014-2.25345,18.4104-12.11243,52.11566-29.29514,65.711-24.4839,3.68208,5.89282,11.61277,23.07543,4.815,60.82109,4.61094,8.28164,28.607,25.91492,28.69772,75.7729-.3851,18.38807-2.31133,33.91487-5.88,47.04114l-1.98259,6.71536s-1.13295,3.16616-2.36823,6.186l-1.45,3.33513c-15.91764,34.77026-48.5696,47.75075-101.3308,53.14792,17.096,10.70407,22.00177,24.13458,22.00177,60.47176s-.48741,41.21606-.374,49.57629c.09776,7.38724,6.00749,12.69879,11.32132,16.72C423.78992,447.413,488.6332,362.0629,488.6332,261.56472Z"/></g></svg>