<svg id="Layer_1" data-name="Layer 1" xmlns="http://www.w3.org/2000/svg" viewBox="0 0 80.5508 113.3862"><defs><style>.cls-1{fill:#d5a238;}.cls-2{fill:#e4bd38;}.cls-3{fill:#fff;}.cls-4{fill:#eaeaea;}.cls-5{fill:#262424;}</style></defs><title>logo-js</title><polygon class="cls-1" points="80.551 22.223 40.275 22.223 40.275 22.223 0 22.223 7.548 104.108 40.275 113.386 40.275 113.386 40.275 113.386 40.275 113.386 40.275 113.386 72.991 104.108 80.551 22.223"/><polygon class="cls-2" points="40.275 28.893 40.275 106.452 40.275 106.452 66.777 98.939 73.231 28.893 40.275 28.893"/><polygon class="cls-3" points="61.36 38.941 20.597 38.941 17.764 69.601 17.824 69.409 52.45 69.409 51.32 82.377 40.275 85.562 29.061 82.33 28.389 74.481 18.208 74.481 19.663 90.166 40.275 96.019 60.888 90.166 63.725 59.385 26.982 59.385 27.451 49.121 52.953 49.121 53.328 54.996 63.6 54.996 61.36 38.941"/><path class="cls-4" d="M70.8662,53.11421H51.18794l-2.833,30.66019.06005-.1924H70.8662V73.5585H58.99068l.46826-10.2641H70.8662ZM58.97945,88.6543H48.79927l1.45459,15.6845,20.61234,5.8408V99.7353L59.6523,96.5029Z" transform="translate(-30.5908 -14.1733)"/><polygon class="cls-5" points="32.437 10.144 25.274 10.144 25.274 15.288 32.437 15.288 36.272 15.288 37.57 15.288 37.57 0 32.437 0 32.437 10.144"/><path class="cls-5" d="M85.8681,14.2509H73.374v5.3535c1.6699,1.6719,2.5429,2.4717,4.9609,4.8897-1.414,0-4.9609.0049-4.9609.0049v4.8838H85.8681V24.498l-4.9902-4.8936h4.9902Z" transform="translate(-30.5908 -14.1733)"/></svg>