<svg id="Layer_1" data-name="Layer 1" xmlns="http://www.w3.org/2000/svg" viewBox="0 0 650 580"><defs><style>.cls-1{fill:#394d54;}.cls-1,.cls-6,.cls-7,.cls-8{fill-rule:evenodd;}.cls-2{fill:#00aada;}.cls-3{fill:#24b8eb;}.cls-4{fill:#008bb8;}.cls-5{fill:#039bc6;}.cls-6{fill:#00acd3;}.cls-7{fill:#20c2ef;}.cls-10,.cls-8{fill:#d4edf1;}.cls-9{fill:#bfdbe0;}</style></defs><title>logo-docker</title><path id="docker" class="cls-1" d="M441.46879,463.3223q16.10731-13.81065,32.1855-27.6641c3.6582-3.1562,7.6719-6.4316,11.30271-9.75-2.914-3.6699-7.77931-6.3164-11.914-7.8945-8.34381-3.1797-16.57421-2.1114-24.22661,2.3066-10.0195,5.7832-14.2851,14.9961-13.9101,26.459a25.358,25.358,0,0,0,3.7578,12.7051,33.76258,33.76258,0,0,0,2.8047,3.8379m12.4257,8.7265c5.2657,1.8379,11.2696,1.5762,16.6719.6348,2.7617-1.1738,9.8281-4.2559,12.4277-3.8047l.4063.0684.373.1836a8.15814,8.15814,0,0,1,3.9102,3.4707c1.8945,3.7871.98441,7.5918-2.7344,9.7402l-1.2383.7148c-13.7246,7.9219-28.3222,6.8243-42.00189-.5742a38.93565,38.93565,0,0,1-15.23631-15.1836l-.8633-1.4961c-8.8106-15.2578-7.6211-31.3086,2.3144-45.8183a39.59349,39.59349,0,0,1,13.1563-11.9199l1.9824-1.1446c12.9258-7.4609,26.7773-6.9511,40.0527-.4023a39.18781,39.18781,0,0,1,16.9043,15.6738l.7168,1.2422c2.8946,5.0156-.8554,9.3867-4.7265,12.373-4.4922,3.4668-9.0274,7.6368-13.334,11.3536Q468.27639,459.59085,453.89449,472.0488Zm102.836-69.414H558.166a6.85349,6.85349,0,0,1,7.23629,7.2382c0,5.9903-5.7265,7.5235-10.6816,7.5235-6.498,0-12.7012,3.9336-17.17969,8.3457-5.58591,5.5058-8.03121,12.5586-8.03121,20.3105v35.0274c0,4.0156-2.5059,7.2383-6.666,7.2383h-1.1407c-4.1582,0-6.664-3.2227-6.664-7.2383V444.043c0-14.2227,6.9238-25.8321,18.4648-33.9746A39.79277,39.79277,0,0,1,556.73049,402.6348Zm-180.3282,24.8574c5.6192-5.627,11.2598-11.2442,16.9629-16.7793,1.5899-1.543,7.6075-8.0781,9.9766-8.0781h2.5918l.2949.0605c3.3008.6856,5.77351,2.7754,5.77351,6.3223v1.4316c0,2.4199-2.834,5.2305-4.39651,6.8867-3.3242,3.5235-6.8242,6.9317-10.2266,10.3829l-17.4785,17.7441q11.2881,11.3145,22.5098,22.6953c2.0644,2.1016,4.13081,4.207,6.164,6.3398a15.82865,15.82865,0,0,1,2.38281,2.7461,5.9277,5.9277,0,0,1,1.045,3.2696v1.4961l-.084.3437c-.81251,3.3008-2.90821,5.9649-6.56641,5.9649h-1.1504c-2.3946,0-5.0977-2.709-6.7383-4.2559-3.377-3.1855-6.6406-6.5352-9.9531-9.7891l-11.1075-10.9043v17.4278c0,4.0136-2.5136,7.2402-6.664,7.2402h-1.1406c-4.1543,0-6.6641-3.2266-6.6641-7.2402V382.5898c0-4.0156,2.5117-7.2265,6.6641-7.2265h1.1406c4.1504,0,6.664,3.2109,6.664,7.2265Zm-46.9296-9.7969c-2.1836-1.0234-6.2735-1.3633-8.6348-1.4531-12.08789-.4551-20.834,6.3516-25.96489,17.0156a26.46581,26.46581,0,0,0-2.58,11.6426c0,12.3926,6.50579,21.0684,17.56829,26.3574,4.041,1.9317,9.2578,2.2988,13.6739,2.2988,3.8847,0,9.373-2.3808,12.8203-4.0175l.5976-.2832H339.627l.29489.0605c3.291.6836,5.7754,2.7695,5.7754,6.3106v1.4316c0,8.8086-16.0996,10.8262-22.2422,11.2539-21.6778,1.502-37.8906-10.4043-44.0723-31.082a37.44053,37.44053,0,0,1-1.5566-10.8985v-2.8632c0-15.6895,7.7851-28.1172,21.2422-36.1114a39.59758,39.59758,0,0,1,20.4472-5.582h2.8672a36.83523,36.83523,0,0,1,21.1817,6.5391l.5234.3613.33011.5449a7.621,7.621,0,0,1,1.27929,3.8145v1.4316c0,3.6934-2.7637,5.6797-6.0996,6.3223l-.2754.0488h-.8555C336.30659,420.8379,331.40039,418.6016,329.47269,417.6953ZM197.543,445.1934c0,10.998,5.39839,19.0879,14.68749,24.7754a26.79466,26.79466,0,0,0,14.2617,3.8808c10.8672,0,18.8984-5.5098,24.4902-14.6816a26.90143,26.90143,0,0,0,3.8711-14.2676c0-10.2266-4.9258-18.0391-13.3457-23.7012a26.9126,26.9126,0,0,0-15.3086-4.6601c-12.1211,0-20.8437,6.123-26.0781,17.0019A26.51085,26.51085,0,0,0,197.543,445.1934Zm27.22459-43.1329h2.0058c16.7637,0,29.5118,8.1329,37.5918,22.7657a38.88829,38.88829,0,0,1,4.959,18.9355v2.8672c0,15.6836-7.7344,28.1816-21.2578,36.1172a40.02012,40.02012,0,0,1-20.4336,5.5723h-2.8652c-15.6875,0-28.15429-7.7559-36.11529-21.25a39.80213,39.80213,0,0,1-5.5761-20.4395v-2.8672c0-15.6914,7.7832-28.123,21.24219-36.123A39.57667,39.57667,0,0,1,224.76759,402.0605ZM102.7949,445.1934c0,11.33,5.4922,19.8476,15.4199,25.2793a26.74939,26.74939,0,0,0,12.9532,3.3769c11.1211,0,19.3691-5.2461,25.0586-14.6699a27.13756,27.13756,0,0,0,3.8789-14.2793c0-9.8223-4.6504-17.4863-12.5645-23.1797a26.99693,26.99693,0,0,0-16.0918-5.1816c-12.1211,0-20.8437,6.123-26.0801,17.0019A26.56289,26.56289,0,0,0,102.7949,445.1934Zm57.3106-32.3321V382.3086c0-4.0117,2.5097-7.2383,6.664-7.2383h1.1524c4.1543,0,6.6523,3.2285,6.6523,7.2383v64.3203c0,15.6856-7.75,28.1641-21.2519,36.1152a39.917,39.917,0,0,1-20.4375,5.5743h-2.8692c-15.6875,0-28.1523-7.7559-36.1152-21.25a39.79843,39.79843,0,0,1-5.5723-20.4395v-2.8672c0-15.6894,7.7539-28.1621,21.2461-36.1269a39.763,39.763,0,0,1,20.4414-5.5743h2.8692C143.502,402.0605,152.5098,406.1758,160.1055,412.8613Z"/><path id="outline" class="cls-1" d="M363.38669,173.3906H406.082v43.6455h21.58789a93.615,93.615,0,0,0,29.66411-4.9756,75.94382,75.94382,0,0,0,14.42189-6.5146c-6.0274-7.8691-9.1036-17.8047-10.0098-27.5986-1.2305-13.3213,1.457-30.6602,10.4727-41.086l4.48821-5.1914,5.34769,4.2989c13.4648,10.8183,24.7891,25.9345,26.7851,43.166,16.2129-4.7686,35.2481-3.6407,49.5391,4.6074l5.8633,3.3828-3.0859,6.0234c-12.086,23.5879-37.3536,30.8946-62.0567,29.6016-36.9648,92.0684-117.4414,135.6563-215.0195,135.6563-50.41209,0-96.66409-18.8458-123.002-63.5723l-.4316-.7305-3.8379-7.8066c-8.9023-19.6875-11.8594-41.2559-9.8535-62.8057l.6015-6.4551h36.5098V173.3906h42.69339V130.6953h85.3925V88h51.2344Z"/><g id="body_colors" data-name="body colors"><path class="cls-2" d="M501.71289,189.5371c2.8633-22.248-13.7871-39.7246-24.1133-48.0215-11.8984,13.7578-13.748,49.8125,4.9199,64.9922-10.4179,9.2539-32.3711,17.6426-54.8496,17.6426H154.043c-2.1856,23.4648,1.9336,45.0723,11.3418,63.5684l3.1132,5.6933a105.45839,105.45839,0,0,0,6.4512,9.6807h.001q16.8735,1.0839,31.10939.7627h.0049c18.6474-.4131,33.8623-2.6133,45.39451-6.6094a3.28663,3.28663,0,0,1,2.15229,6.2109c-1.5332.5313-3.1328,1.0284-4.7832,1.5l-.0058.002a142.86268,142.86268,0,0,1-31.3789,5.1123c.7441.0117-.77739.1113-.7813.1123-.4267.0264-.9648.0869-1.3945.1113-4.9434.2774-10.2803.335-15.7363.335-5.96679,0-11.84479-.1133-18.41409-.4463l-.168.1113c22.7988,25.625,58.44729,40.9942,103.13089,40.9942,94.5703,0,174.7851-41.9219,210.3047-136.0391,25.2011,2.5859,49.4199-3.8398,60.4375-25.3457C537.27339,179.7773,514.707,183.0059,501.71289,189.5371Z"/><path class="cls-3" d="M501.71289,189.5371c2.8633-22.248-13.7871-39.7246-24.1133-48.0215-11.8984,13.7578-13.748,49.8125,4.9199,64.9922-10.4179,9.2539-32.3711,17.6426-54.8496,17.6426H170.2461c-1.1172,35.9355,12.2187,63.2139,35.81349,79.7051h.0049c18.6474-.4131,33.8623-2.6133,45.39451-6.6094a3.28663,3.28663,0,0,1,2.15229,6.2109c-1.5332.5313-3.1328,1.0284-4.7832,1.5l-.0058.002a150.21216,150.21216,0,0,1-32.2159,5.3359l-.3085-.29c32.1845,16.5088,78.8525,16.4502,132.3564-4.1026,59.9941-23.0468,115.8184-66.957,154.7715-117.1796Q502.54394,189.1211,501.71289,189.5371Z"/><path class="cls-4" d="M154.5547,252.6602a109.41927,109.41927,0,0,0,10.8301,35.0586l3.1132,5.6933a105.26414,105.26414,0,0,0,6.4522,9.6807q16.8765,1.0839,31.11429.7627c18.6474-.4131,33.8623-2.6133,45.39451-6.6094a3.28663,3.28663,0,0,1,2.15229,6.2109c-1.5332.5313-3.1328,1.0284-4.7832,1.5l-.0058.002a150.15038,150.15038,0,0,1-32.1602,5.2246c-.4307.0264-1.1836.0312-1.6182.0557-4.9423.2773-10.2236.4462-15.6806.4462-5.96579,0-12.06739-.1132-18.63669-.4462,22.79879,25.625,58.66989,41.0498,103.35349,41.0498,80.96091,0,151.3984-30.7305,192.2812-98.6289Z"/><path class="cls-5" d="M172.709,252.6602c4.8398,22.0693,16.4707,39.3945,33.35549,51.1953,18.6474-.4131,33.8623-2.6133,45.39451-6.6094a3.28663,3.28663,0,0,1,2.15229,6.2109c-1.5332.5313-3.1328,1.0284-4.7832,1.5l-.0058.002a152.40641,152.40641,0,0,1-32.3828,5.2246c32.1816,16.5068,78.7148,16.2695,132.2148-4.2813,32.3652-12.4355,63.5156-30.9472,91.4629-53.2421Z"/></g><g id="Containers"><path class="cls-6" d="M222.17969,183.5898h2.9219v30.8379h-2.9219Zm-5.6055,0h3.0371v30.8379h-3.0371Zm-5.6074,0h3.0371v30.8379h-3.0371Zm-5.6074,0h3.0371v30.8379h-3.0371Zm-5.6055,0H202.791v30.8379h-3.03711Zm-5.49019,0h2.9199v30.8379h-2.9199Zm-3.0821-3.0839h37.002v37.0039h-37.002Z"/><path class="cls-6" d="M264.875,140.8945h2.92379v30.836H264.875Zm-5.60551,0h3.0371v30.836h-3.0371Zm-5.6074,0h3.0371v30.836h-3.0371Zm-5.6074,0h3.0371v30.836h-3.0371Zm-5.6035,0h3.0351v30.836h-3.0351Zm-5.4903,0h2.918v30.836h-2.918Zm-3.08589-3.084h37.00589v37.003H233.875Z"/><path class="cls-7" d="M264.875,183.5898h2.92379v30.8379H264.875Zm-5.60551,0h3.0371v30.8379h-3.0371Zm-5.6074,0h3.0371v30.8379h-3.0371Zm-5.6074,0h3.0371v30.8379h-3.0371Zm-5.6035,0h3.0351v30.8379h-3.0351Zm-5.4903,0h2.918v30.8379h-2.918Zm-3.08589-3.0839h37.00589v37.0039H233.875Z"/><path class="cls-6" d="M307.57229,183.5898h2.9199v30.8379h-2.9199Zm-5.6075,0h3.0391v30.8379h-3.0391Zm-5.6054,0h3.0371v30.8379h-3.0371Zm-5.60739,0h3.03709v30.8379H290.752Zm-5.60751,0h3.0371v30.8379h-3.0371Zm-5.4882,0h2.9179v30.8379h-2.9179Zm-3.084-3.0839h37.0039v37.0039h-37.0039Z"/><path class="cls-7" d="M307.57229,140.8945h2.9199v30.836h-2.9199Zm-5.6075,0h3.0391v30.836h-3.0391Zm-5.6054,0h3.0371v30.836h-3.0371Zm-5.60739,0h3.03709v30.836H290.752Zm-5.60751,0h3.0371v30.836h-3.0371Zm-5.4882,0h2.9179v30.836h-2.9179Zm-3.084-3.084h37.0039v37.003h-37.0039Z"/><path class="cls-7" d="M350.26759,183.5898h2.9219v30.8379h-2.9219Zm-5.6055,0h3.0371v30.8379h-3.0371Zm-5.6074,0h3.0371v30.8379h-3.0371Zm-5.6074,0h3.0371v30.8379h-3.0371Zm-5.6055,0h3.0371v30.8379h-3.0371Zm-5.4902,0h2.9199v30.8379h-2.9199Zm-3.084-3.0839h37.0039v37.0039h-37.0039Z"/><path class="cls-6" d="M350.26759,140.8945h2.9219v30.836h-2.9219Zm-5.6055,0h3.0371v30.836h-3.0371Zm-5.6074,0h3.0371v30.836h-3.0371Zm-5.6074,0h3.0371v30.836h-3.0371Zm-5.6055,0h3.0371v30.836h-3.0371Zm-5.4902,0h2.9199v30.836h-2.9199Zm-3.084-3.084h37.0039v37.003h-37.0039Z"/><path class="cls-7" d="M350.26759,98.1973h2.9219v30.8379h-2.9219Zm-5.6055,0h3.0371v30.8379h-3.0371Zm-5.6074,0h3.0371v30.8379h-3.0371Zm-5.6074,0h3.0371v30.8379h-3.0371Zm-5.6055,0h3.0371v30.8379h-3.0371Zm-5.4902,0h2.9199v30.8379h-2.9199Zm-3.084-3.0821h37.0039v37.0039h-37.0039Z"/><path class="cls-6" d="M392.96289,183.5898h2.9199v30.8379h-2.9199Zm-5.6055,0h3.0352v30.8379h-3.0352Zm-5.60939,0h3.03719v30.8379H381.748Zm-5.60541,0h3.0371v30.8379h-3.0371Zm-5.6074,0h3.0371v30.8379h-3.0371Zm-5.4903,0h2.9219v30.8379h-2.9219Zm-3.082-3.0839h37.0039v37.0039h-37.0039Z"/></g><path class="cls-8" d="M268.56449,277.5039a10.208,10.208,0,1,1-10.209,10.209,10.20931,10.20931,0,0,1,10.209-10.209"/><path class="cls-1" d="M268.56449,280.4004a7.30887,7.30887,0,0,1,2.6464.4941,2.98262,2.98262,0,1,0,4.1075,4.0137,7.31289,7.31289,0,1,1-6.7539-4.5078"/><path class="cls-1" d="M88,256.3496H562.877c-10.33991-2.623-32.71491-6.166-29.02541-19.7168-18.8008,21.7559-64.14259,15.2637-75.586,4.5352-12.7422,18.4824-86.9258,11.457-92.09959-2.9414-15.97461,18.748-65.47651,18.748-81.45311,0-5.1758,14.3984-79.3574,21.4238-92.10159,2.9414-11.4433,10.7285-56.7812,17.2207-75.584-4.5352C120.7168,250.1836,98.3418,253.7266,88,256.3496"/><path class="cls-9" d="M295.70119,351.0684c-25.2813-11.9971-39.15819-28.3057-46.8789-46.1094-9.3907,2.6806-20.6797,4.3935-33.795,5.1299q-7.4121.41595-15.5937.4189-9.43064,0-19.86909-.5547c23.1835,23.1699,51.705,41.0098,104.51559,41.336Q289.92769,351.2891,295.70119,351.0684Z"/><path class="cls-10" d="M258.21289,321.3867a88.55031,88.55031,0,0,1-9.3848-16.4297c-9.3926,2.6817-20.6836,4.3955-33.8008,5.1319C224.03709,314.9805,236.92379,319.5117,258.21289,321.3867Z"/></svg>