<svg id="Layer_1" data-name="Layer 1" xmlns="http://www.w3.org/2000/svg" xmlns:xlink="http://www.w3.org/1999/xlink" viewBox="0 0 335.29 469.67701"><defs><style>.cls-1{fill:#3a5ea3;}.cls-2{fill:#739dd1;}.cls-10,.cls-3{fill:#211915;}.cls-4{fill:#fff;}.cls-5{fill:url(#linear-gradient);}.cls-6{fill:url(#linear-gradient-2);}.cls-7{fill:url(#linear-gradient-3);}.cls-10,.cls-8{opacity:0.05;}.cls-9{fill:url(#linear-gradient-4);}.cls-10{isolation:isolate;}</style><linearGradient id="linear-gradient" x1="118.7765" y1="185.0899" x2="118.7765" y2="265.89089" gradientTransform="matrix(1, 0, 0, -1, 0, 471.0939)" gradientUnits="userSpaceOnUse"><stop offset="0.3865" stop-color="#d8d9dd" stop-opacity="0"/><stop offset="1" stop-color="#d8d9dd"/></linearGradient><linearGradient id="linear-gradient-2" x1="219.73299" y1="225.39089" x2="219.73299" y2="309.37989" xlink:href="#linear-gradient"/><linearGradient id="linear-gradient-3" x1="70.18099" y1="149.0509" x2="264.24499" y2="149.0509" gradientTransform="matrix(1, 0, 0, -1, 0, 471.0939)" gradientUnits="userSpaceOnUse"><stop offset="0" stop-color="#f0f0ef"/><stop offset="1" stop-color="#fff"/></linearGradient><linearGradient id="linear-gradient-4" x1="61.25199" y1="288.8189" x2="271.94399" y2="288.8189" xlink:href="#linear-gradient-3"/></defs><title>logo-css</title><polygon class="cls-1" points="303.854 433 167.644 469.677 31.432 433 0 92.476 335.29 92.476 303.854 433"/><polygon class="cls-2" points="167.643 120.058 167.643 440.425 167.95 440.508 278.179 410.827 303.622 120.058 167.643 120.058"/><polygon class="cls-3" points="90.339 42.446 90.339 22.178 119.91 22.178 119.91 0 68.161 0 68.161 62.684 119.91 62.684 119.91 42.446 90.339 42.446"/><path class="cls-3" d="M173.105,22.1782h20.67279V0h-51.7529V22.1782c6.9234,6.92428,10.5347,10.2378,20.54791,20.252-5.85309,0-20.54791.021-20.54791.0195V62.68361h51.7529V42.4458Z" transform="translate(0 0.0001)"/><path class="cls-3" d="M246.45747,22.1782h20.67291V0H215.37357V22.1782c6.9238,6.92428,10.53711,10.2378,20.55069,20.252-5.8515,0-20.55069.021-20.55069.0195V62.68361h51.75681V42.4458Z" transform="translate(0 0.0001)"/><polygon class="cls-4" points="167.522 205.203 70.031 245.806 73.265 286.004 167.522 245.703 267.786 202.836 271.944 161.714 167.522 205.203"/><polygon class="cls-5" points="70.031 245.806 73.265 286.004 167.522 245.703 167.522 205.203 70.031 245.806"/><polygon class="cls-6" points="271.944 161.714 167.522 205.203 167.522 245.703 267.786 202.836 271.944 161.714"/><polygon class="cls-7" points="70.181 245.806 73.415 286.004 218.04 286.466 214.805 340.063 167.215 353.462 121.467 341.911 118.695 308.644 76.187 308.644 81.731 372.868 167.677 398.28 253.155 373.329 264.245 245.806 70.181 245.806"/><g class="cls-8"><polygon class="cls-3" points="167.522 245.806 70.031 245.806 73.265 286.004 167.522 286.305 167.522 245.806"/><polygon class="cls-3" points="167.522 353.332 167.06 353.462 121.318 341.911 118.545 308.644 76.038 308.644 81.582 372.868 167.522 398.28 167.522 353.332"/></g><polygon class="cls-9" points="61.252 161.714 271.944 161.714 267.786 202.836 66.334 202.836 61.252 161.714"/><polygon class="cls-10" points="167.522 161.714 61.252 161.714 66.334 202.836 167.522 202.836 167.522 161.714"/></svg>