<svg id="Layer_1" data-name="Layer 1" xmlns="http://www.w3.org/2000/svg" viewBox="0 0 322.01699 245.17728"><defs><style>.cls-1{fill:#001550;}.cls-2{fill:#454590;}.cls-3{fill:#8884b8;}</style></defs><title>logo-dana-final-color</title><polygon class="cls-1" points="64.727 23.052 182.218 11.898 281.862 103.362 226.091 147.979 64.727 23.052"/><polygon class="cls-2" points="275.169 0 227.578 53.54 281.862 103.362 275.169 0"/><polygon class="cls-2" points="185.192 116.004 160.653 205.237 226.091 147.979 185.192 116.004"/><polygon class="cls-3" points="275.169 0 277.4 35.693 322.017 46.104 275.169 0"/><path class="cls-2" d="M145.96293,443.41583a17.133,17.133,0,0,1,17.05662-17.20532,21.962,21.962,0,0,1,8.97354,2.00245V412.1942a5.27586,5.27586,0,0,0-1.92833-4.301c-1.26025-.89-4.52383-1.48352-6.52629-1.63179v-.2224l13.275-.74176.37067.3711v49.5385a4.30028,4.30028,0,0,0,1.92832,3.63381c.88959.59349,3.04031.81589,4.37557.89v.297l-11.05013.6672-.37066-.37067v-3.78207l-.29653-.07457c-1.63179,1.70592-5.26517,5.0432-9.93727,5.0432C152.934,461.51074,145.96293,454.53965,145.96293,443.41583Zm26.03016,12.088V433.77466c-1.11287-3.26271-3.70838-7.11935-9.27008-7.11935-6.22976,0-10.90186,7.19348-10.90186,17.65011,0,7.63872,3.63425,15.0546,11.94059,15.0546C167.61751,459.36,169.9165,457.65453,171.99309,455.50381Z" transform="translate(-145.96293 -273.60858)"/><path class="cls-2" d="M186.97312,453.872c0-6.08105,3.56011-8.00894,7.26761-9.41833,4.22731-1.63136,9.19594-2.96618,12.38452-4.74624l-.07413-5.04276c0-3.93034-.96373-7.93525-6.67369-7.93525a6.85645,6.85645,0,0,0-5.4143,2.22485c.07414,1.33483.59394,4.52384.59394,5.78453,0,1.55766-1.48353,2.81835-3.63425,2.81835-1.85419,0-2.52138-1.78006-2.52138-3.48554,0-4.37558,5.63583-7.86112,11.12426-7.86112,6.897,0,11.86559,1.55722,11.86559,10.97556,0,6.45216-.37067,14.16457-.37067,16.61182,0,2.52138.81546,4.44971,3.18858,4.44971,2.15072,0,3.55924-2.07659,3.9299-6.1552h.44567c-.59393,6.82283-2.74378,9.12137-6.378,9.12137-3.04032,0-5.1169-1.63135-6.0815-4.96863h-.2224a14.6348,14.6348,0,0,1-10.97512,5.11734C190.31083,461.36248,186.97312,458.61826,186.97312,453.872Zm19.3556,1.70593.29653-15.12873c-1.77918.74176-3.411,1.33482-4.8945,1.92832-5.93236,2.299-9.12093,5.191-9.12093,10.60489,0,4.07861,1.85331,6.52586,5.48756,6.52586A9.962,9.962,0,0,0,206.32872,455.578Z" transform="translate(-145.96293 -273.60858)"/><path class="cls-2" d="M221.08722,460.32418a10.834,10.834,0,0,0,3.26271-.44523c1.4094-.4448,2.07659-1.77962,2.07659-3.41141V432.9592a4.91193,4.91193,0,0,0-2.00245-3.93078,7.80833,7.80833,0,0,0-3.63338-1.18655v-.29654l10.4562-.81589.29653.297v6.00692h.14914c2.81791-2.74421,5.63582-6.82282,12.01385-6.82282,6.897,0,10.0114,4.6721,10.0114,11.71732V456.171a3.41965,3.41965,0,0,0,2.00245,3.41141,8.785,8.785,0,0,0,3.26271.74176v.29653H242.44528v-.29653a18.23779,18.23779,0,0,0,3.78251-.44523,3.25187,3.25187,0,0,0,2.299-3.41141v-19.578c0-5.191-3.41185-8.08351-7.04522-8.08351a11.69253,11.69253,0,0,0-9.93814,5.41386v21.877a3.49131,3.49131,0,0,0,2.22485,3.41141,10.78573,10.78573,0,0,0,3.78251.81589v.29653H221.08722Z" transform="translate(-145.96293 -273.60858)"/><path class="cls-2" d="M263.4318,453.872c0-6.08105,3.56011-8.00894,7.26762-9.41833,4.22731-1.63136,9.19594-2.96618,12.38451-4.74624l-.07413-5.04276c0-3.93034-.96372-7.93525-6.67368-7.93525a6.85642,6.85642,0,0,0-5.4143,2.22485c.07413,1.33483.59393,4.52384.59393,5.78453,0,1.55766-1.48352,2.81835-3.63424,2.81835-1.85419,0-2.52139-1.78006-2.52139-3.48554,0-4.37558,5.63583-7.86112,11.12426-7.86112,6.897,0,11.86559,1.55722,11.86559,10.97556,0,6.45216-.37154,14.16457-.37154,16.61182,0,2.52138.81634,4.44971,3.18945,4.44971,2.15072,0,3.55924-2.07659,3.93078-6.1552h.4448c-.59394,6.82283-2.74379,9.12137-6.378,9.12137-3.04031,0-5.1169-1.63135-6.0815-4.96863h-.22239a14.63482,14.63482,0,0,1-10.97513,5.11734C266.76952,461.36248,263.4318,458.61826,263.4318,453.872Zm19.3556,1.70593.29653-15.12873c-1.77918.74176-3.411,1.33482-4.8945,1.92832-5.93235,2.299-9.12093,5.191-9.12093,10.60489,0,4.07861,1.85332,6.52586,5.48756,6.52586A9.962,9.962,0,0,0,282.7874,455.578Z" transform="translate(-145.96293 -273.60858)"/><path class="cls-2" d="M161.6922,517.15451a13.79251,13.79251,0,0,0,3.18945-.44523c1.33438-.4448,1.78-1.26069,1.78-2.89205V489.27016c0-1.92832-.59393-3.26314-1.70592-4.00447a8.954,8.954,0,0,0-3.78251-1.03829v-.44524l15.94463-.88959.29653.29653v5.3393h.22239c2.66965-2.81791,5.26517-6.08106,11.12426-6.08106,4.67211,0,7.86068,2.22485,9.41834,6.22976h.29653c2.81792-2.96661,5.63583-6.22976,11.79144-6.22976,6.67457,0,9.71488,4.74624,9.71488,11.64319v19.3556c0,1.63179.14827,2.596,1.55766,3.11488a11.6179,11.6179,0,0,0,3.33684.5935v.51893H205.37291v-.51893a7.49086,7.49086,0,0,0,2.74378-.5935c.96372-.51893,1.03785-1.63135,1.03785-3.26314V493.86813c0-4.8945-1.63091-7.04522-4.22643-7.04522-3.41185,0-5.48843,1.70549-6.22976,3.26315V513.1496c0,1.63179.2224,2.66965,1.26113,3.33728a6.11687,6.11687,0,0,0,2.59551.66763v.51893H184.16312v-.51893a6.14774,6.14774,0,0,0,2.66964-.5935c.96373-.51893,1.03786-1.63135,1.03786-3.26314V494.16466c0-4.8945-1.55679-7.19348-4.30057-7.19348a6.84845,6.84845,0,0,0-6.15562,3.26314v23.21181c0,1.63179.14826,2.596,1.11286,3.04075a10.14882,10.14882,0,0,0,2.96618.66763v.51893H161.6922Z" transform="translate(-145.96293 -273.60858)"/><path class="cls-2" d="M226.50944,510.33169c0-6.3039,3.55924-8.23178,7.26761-9.5666,4.44971-1.6318,10.4562-2.74422,12.31039-4.15318v-4.8945c0-2.52138,0-8.52831-4.22732-8.52831a6.15112,6.15112,0,0,0-4.0049,1.409c.22327,1.18656,1.70593,4.37557,1.70593,6.67456,0,1.63135-2.22486,4.22687-6.08063,4.22687-3.85664,0-5.34016-2.66965-5.34016-5.1169,0-4.598,7.93568-7.93525,14.31283-7.93525,7.93569,0,14.4611,1.26069,14.4611,11.12426,0,6.74825-.44479,15.42526-.44479,17.87251,0,1.18656.81633,3.48555,2.66965,3.48555,2.22485,0,3.78251-2.74422,3.85664-7.11936h.88959c-.14826,6.22933-2.37312,10.8273-9.0468,10.8273-4.74623,0-7.04522-2.07659-8.52874-4.82037h-.2224c-2.44725,2.59552-4.82037,4.96863-10.60533,4.96863C230.43934,518.78586,226.50944,515.22619,226.50944,510.33169Zm19.3556,2.15072.29653-14.68394c-5.8591,2.299-8.38048,4.22731-8.38048,10.45663,0,4.74624,1.63179,6.60042,3.70838,6.60042A4.65478,4.65478,0,0,0,245.865,512.48241Z" transform="translate(-145.96293 -273.60858)"/><path class="cls-2" d="M263.44059,517.15451a10.1863,10.1863,0,0,0,3.11531-.44523c1.40852-.51893,1.85419-1.63136,1.85419-3.26315V489.04776a5.30743,5.30743,0,0,0-1.92832-3.93034,8.04817,8.04817,0,0,0-3.70838-.89v-.44524l16.09289-.88959.29654.29653v5.191h.14826c2.96618-3.8562,6.00736-5.78452,9.5666-5.78452,3.70838,0,6.45216,2.67008,6.45216,6.74868,0,3.48555-2.299,6.378-5.71083,6.378-3.18858,0-5.48756-1.78006-5.48756-4.8208,0-2.07615,1.11286-4.07861,1.33526-4.96864-3.18945.07414-5.71083,2.89249-6.30389,3.93078V513.1496a3.25223,3.25223,0,0,0,2.00245,3.26315,19.12838,19.12838,0,0,0,4.8945.74176v.51893H263.44059Z" transform="translate(-145.96293 -273.60858)"/><path class="cls-2" d="M295.77464,517.15451a10.3433,10.3433,0,0,0,3.18945-.44523,3.16553,3.16553,0,0,0,1.92832-3.26315V488.8995a4.28033,4.28033,0,0,0-1.85419-3.70794,11.18029,11.18029,0,0,0-4.37557-.96416v-.44524l16.68595-.88959.29653.29653v30.33116c0,1.55766.29653,2.44769,1.63179,3.11488a8.6564,8.6564,0,0,0,3.55924.51937v.51893H295.77464Z" transform="translate(-145.96293 -273.60858)"/><path class="cls-2" d="M317.874,517.15451a13.79251,13.79251,0,0,0,3.18945-.44523c1.33439-.4448,1.78005-1.26069,1.78005-2.89205V489.27016c0-1.92832-.59393-3.26314-1.70592-4.00447a8.95394,8.95394,0,0,0-3.78251-1.03829v-.44524l15.94463-.88959.29653.29653v5.3393h.2224c2.66965-2.81791,5.1169-6.08106,11.34666-6.08106,7.26761,0,10.15966,4.598,10.15966,11.64319v19.42973c0,1.63179.14826,2.52182,1.55766,3.04075a14.16373,14.16373,0,0,0,3.33684.5935v.51893H340.56734v-.51893a10.0284,10.0284,0,0,0,2.74378-.51937c1.03873-.37066,1.11286-1.63135,1.11286-3.26314V493.64573c0-5.11733-2.07659-6.67455-4.6721-6.67455a6.84846,6.84846,0,0,0-6.15563,3.26314v23.21181c0,1.63179.14826,2.596,1.11286,3.04075a10.14889,10.14889,0,0,0,2.96618.66763v.51893H317.874Z" transform="translate(-145.96293 -273.60858)"/></svg>