<svg id="Layer_1" data-name="Layer 1" xmlns="http://www.w3.org/2000/svg" xmlns:xlink="http://www.w3.org/1999/xlink" viewBox="0 0 499.36223 486.87901"><defs><style>.cls-1{fill:url(#radial-gradient);}.cls-2{fill:#d8a1ff;}</style><radialGradient id="radial-gradient" cx="-640.55097" cy="629.54802" r="0.63754" gradientTransform="matrix(545.67358, 0, 0, -528.31128, 349703.44906, 332731.11582)" gradientUnits="userSpaceOnUse"><stop offset="0" stop-color="#442f55" stop-opacity="0.98"/><stop offset="1" stop-color="#12002c"/></radialGradient></defs><title>logo-ae</title><path class="cls-1" d="M20.80648,33.92747H478.55572v445.2652H20.80648Z" transform="translate(0 -13.12099)"/><path class="cls-2" d="M20.80648,33.92747H478.55572v445.2652H20.80648ZM0,500H499.36223V13.121H0ZM353.29826,247.82158c10.61085,0,14.35642,0,15.39661-.41608,0-1.45627.41609-2.49731.41609-3.53752,0-11.23583-5.40988-32.04229-27.0485-32.04229-19.97517,0-28.50479,17.477-30.586,35.99589Zm-42.23708,28.50477c.41608,28.08953,13.73229,47.02366,45.3585,47.02366,12.276,0,22.88686-1.66348,33.91548-6.44922,1.45627-.62411,2.49731-.41608,2.49731,1.45627V344.3654a4.40638,4.40638,0,0,1-2.08041,4.16163c-11.02777,5.409-24.76091,7.90633-41.82184,7.90633-54.92918,0-75.52846-40.57276-75.52846-85.72323,0-49.10407,25.385-89.26074,70.11943-89.26074,45.35849,0,61.172,38.07627,61.172,69.07839,0,9.98759-.62411,18.102-1.66432,22.05555a3.0942,3.0942,0,0,1-2.70536,2.70536c-4.16163.62411-16.43765,1.45543-34.74765,1.45543H311.06118v-.41777ZM199.53769,255.1038c-5.826-23.09576-19.97516-73.448-25.177-97.792h-.41608c-4.36883,24.344-15.81353,65.54087-24.344,97.792Zm-58.46837,33.70744-16.4368,62.21222c-.41608,1.66346-1.04021,2.28846-3.12143,2.28846h-30.586c-2.0804,0-2.49731-.62413-2.0804-3.12057l59.09081-206.61187c1.0402-3.7447,1.66431-6.65812,2.08039-17.06094,0-1.45627.62412-2.0804,1.66431-2.0804h43.6942c1.45627,0,2.08039.41608,2.49732,2.0804l66.165,224.08887c.41609,1.66345,0,2.70451-1.66432,2.70451H228.04165c-1.66433,0-2.70536-.62413-3.12144-2.07956l-17.06177-62.42028H141.06932Z" transform="translate(0 -13.12099)"/></svg>