<svg id="Layer_1" data-name="Layer 1" xmlns="http://www.w3.org/2000/svg" viewBox="0 0 363.691 512"><defs><style>.cls-1{fill:#e34e26;}.cls-2{fill:#ef662a;}.cls-3{fill:#fff;}.cls-4{fill:#ebebeb;}</style></defs><title>logo-html</title><path d="M34.37,0H57.447V22.8h21.11V0h23.078V69.044H78.558V45.924H57.448v23.12H34.371L34.37,0Z"/><path d="M131.982,22.896H111.666V0h63.72V22.896H155.061V69.044H131.983l-.001-46.148Z"/><path d="M185.499,0h24.063l14.802,24.26L239.151,0h24.072V69.044H240.241V34.822L224.364,59.371h-.397L208.079,34.822V69.044h-22.58Z"/><path d="M274.708,0h23.084V46.222h32.453V69.044H274.708Z"/><g id="Guides_to_delete" data-name="Guides to delete"><polygon class="cls-1" points="33.113 470.727 0 99.297 363.691 99.297 330.537 470.755 181.757 512 33.113 470.727"/><polygon class="cls-2" points="181.845 129.657 181.845 480.449 302.152 447.101 330.498 129.657 181.845 129.657"/><polygon class="cls-3" points="67.749 175.217 80.029 312.978 237.924 312.978 232.625 372.066 181.787 385.811 131.045 372.085 127.652 334.146 81.925 334.146 88.464 407.282 181.775 433.199 275.207 407.282 287.732 267.429 121.694 267.429 117.526 220.777 291.72 220.777 291.861 220.777 295.941 175.217 67.749 175.217"/><polygon class="cls-4" points="181.845 175.217 67.749 175.217 80.029 312.978 181.845 312.978 181.845 267.429 121.694 267.429 117.526 220.777 181.845 220.777 181.845 175.217"/><polygon class="cls-4" points="181.845 385.791 181.787 385.811 131.045 372.085 127.652 334.146 81.925 334.146 88.464 407.282 181.775 433.199 181.845 433.179 181.845 385.791"/></g></svg>