<svg id="Layer_1" data-name="Layer 1" xmlns="http://www.w3.org/2000/svg" viewBox="0 0 175.74805 91.25543"><defs><style>.cls-1{fill:#006289;}.cls-1,.cls-2{fill-rule:evenodd;}.cls-2{fill:#d09300;}</style></defs><title>logo-mysql</title><path class="cls-1" d="M217.50394,428.21558h5.80026V405.23767l9.05725,20.0333c1.02643,2.40914,2.49873,3.30151,5.35408,3.30151,2.85562,0,4.23866-.89237,5.30957-3.30151l9.01276-20.0333v22.97791h5.84477V405.23767c0-2.2309-.89235-3.30179-2.76633-3.88177-4.417-1.33854-7.36187-.17829-8.70039,2.81085l-8.87868,19.81018-8.56659-19.81018c-1.294-2.98914-4.28341-4.14939-8.74516-2.81085-1.82919.58-2.72154,1.65087-2.72154,3.88177v22.97791Z" transform="translate(-217.50394 -345.08054)"/><path class="cls-1" d="M262.70151,409.52081h5.84479v12.627c-.04453.71371.22308,2.32016,3.39074,2.36462,1.65094.04449,12.58216,0,12.67145,0v-15.0806h5.84506V430.0896c0,5.08649-6.2912,6.2019-9.23584,6.24637H262.83533v-3.88172h18.42688c3.748-.40139,3.30179-2.27539,3.30179-2.90014v-1.51682H272.20493c-5.75571-.04477-9.4589-2.588-9.50342-5.48816,0-.26761.13382-12.939,0-13.02832Z" transform="translate(-217.50394 -345.08054)"/><path class="cls-1" d="M388.07645,394.88641a20.64943,20.64943,0,0,0-8.65586,1.24924c-.66928.26782-1.7402.26782-1.8295,1.11542.35721.35711.40171.9371.71406,1.42779a10.4434,10.4434,0,0,0,2.32016,2.72181c.93688.7138,1.874,1.42752,2.85537,2.05227,1.74015,1.071,3.70346,1.69544,5.39887,2.76636.9816.62448,1.963,1.42783,2.94461,2.09705.49093.35693.80307.93685,1.42782,1.15994v-.13379c-.3124-.40164-.4017-.98163-.71377-1.4278-.44617-.44616-.89234-.84787-1.3385-1.294a21.16535,21.16535,0,0,0-4.64032-4.5062c-1.42783-.98169-4.55106-2.32016-5.131-3.97107l-.0893-.089a18.1288,18.1288,0,0,0,3.07868-.714c1.51684-.4014,2.90014-.31235,4.46176-.71374.71371-.17862,1.42776-.40171,2.14157-.62476v-.4014c-.8031-.80334-1.38306-1.874-2.23087-2.6325a59.49747,59.49747,0,0,0-7.36184-5.48789c-1.38334-.89236-3.168-1.47262-4.64032-2.23089-.53547-.26789-1.42786-.40165-1.73993-.84784a18.01653,18.01653,0,0,1-1.82947-3.43555c-1.29376-2.454-2.54327-5.17554-3.65869-7.76331a47.56049,47.56049,0,0,0-2.27536-5.08648c-4.59555-7.5849-9.59275-12.18042-17.267-16.687a21.44312,21.44312,0,0,0-5.71094-1.82917c-1.11542-.0448-2.23086-.13382-3.34631-.17862a17.74671,17.74671,0,0,1-2.05252-1.56155c-2.543-1.60611-9.10178-5.08624-10.9758-.49069-1.20471,2.90008,1.78473,5.75543,2.81088,7.22806a21.05581,21.05581,0,0,1,2.27567,3.34628c.312.7583.40136,1.56158.71374,2.36468a53.49451,53.49451,0,0,0,2.32013,5.97882,21.53294,21.53294,0,0,0,1.65088,2.76606c.35693.491.98138.714,1.11545,1.51709-.62476.89233-.66922,2.23086-1.0264,3.34631-1.60611,5.04169-.98135,11.28812,1.294,14.9913.71371,1.11545,2.40939,3.56967,4.68481,2.63251,2.00775-.803,1.56155-3.34628,2.14157-5.57718.13379-.53543.04474-.89233.31235-1.24918v.0893c.62476,1.24918,1.24924,2.45392,1.82922,3.70319a25.47682,25.47682,0,0,0,5.80023,5.97882c1.07093.803,1.9188,2.18606,3.25727,2.677V397.028h-.08924a4.93094,4.93094,0,0,0-1.02615-.89233,21.639,21.639,0,0,1-2.32016-2.67706,57.354,57.354,0,0,1-4.99719-8.12042c-.71381-1.383-1.33856-2.90012-1.91849-4.28315-.26788-.53549-.26788-1.33853-.714-1.60611a16.795,16.795,0,0,0-2.14157,3.03394c-.8476,1.91846-.93686,4.28314-1.24924,6.73706-.17862.04483-.08929,0-.17862.08929-1.42752-.35687-1.91845-1.82916-2.45392-3.07867a19.29793,19.29793,0,0,1-.40136-11.91263c.31235-.9371,1.65088-3.88177,1.11542-4.77408-.26789-.84787-1.16022-1.33856-1.65088-2.00778a17.97816,17.97816,0,0,1-1.60611-2.85562c-1.071-2.49844-1.60642-5.26477-2.76636-7.76355a23.76388,23.76388,0,0,0-2.23087-3.43527,22.07154,22.07154,0,0,1-2.454-3.48038c-.22305-.49069-.53546-1.29376-.17852-1.82925a.711.711,0,0,1,.62472-.58c.58-.49094,2.2309.13382,2.81082.4014a22.76527,22.76527,0,0,1,4.41721,2.23086c.62451.4462,1.29379,1.294,2.0968,1.51712h.93717c1.42782.31235,3.03393.0893,4.37243.4907a28.52835,28.52835,0,0,1,6.425,3.0787A39.58573,39.58573,0,0,1,365.45544,370.57c.53519,1.02612.75824,1.96325,1.24924,3.0339.93683,2.18637,2.09708,4.41724,3.03391,6.55881a29.32291,29.32291,0,0,0,3.16772,5.97885c.66925.93683,3.34631,1.42749,4.551,1.91849a31.65823,31.65823,0,0,1,3.07867,1.2492c1.51685.93686,3.03394,2.00782,4.46176,3.034.71375.53546,2.94461,1.65088,3.07868,2.54324Z" transform="translate(-217.50394 -345.08054)"/><path class="cls-1" d="M342.56653,356.11383a7.06214,7.06214,0,0,0-1.82919.22308v.0893h.08929a14.33441,14.33441,0,0,0,1.42752,1.82916c.35715.714.66922,1.42786,1.02643,2.14191l.089-.0893a2.51724,2.51724,0,0,0,.9371-2.23089,9.987,9.987,0,0,1-.53543-.93711c-.26761-.44619-.8479-.66928-1.20474-1.02615Z" transform="translate(-217.50394 -345.08054)"/><path class="cls-2" d="M294.91525,428.21558h16.776a12.74725,12.74725,0,0,0,5.3541-1.11545c2.54327-1.15991,3.748-2.7215,3.748-4.77411v-4.28314c0-1.65091-1.3833-3.2125-4.14938-4.28339a14.59746,14.59746,0,0,0-4.9527-.84756h-7.04947c-2.36462,0-3.48007-.714-3.79248-2.27567a2.16352,2.16352,0,0,1-.04477-.53522v-2.6325a1.99262,1.99262,0,0,1,.04477-.49067c.31241-1.20474.93686-1.51715,2.98945-1.7402h17.17767V401.3559H304.68631a15.09848,15.09848,0,0,0-4.72931.49093c-3.43564,1.07065-4.9527,2.76609-4.9527,5.75546v3.39112c0,2.63223,2.94492,4.8631,7.94211,5.39856.53516.04452,1.11539.04452,1.69537.04452h6.02335a2.73612,2.73612,0,0,1,.62476.04477c1.82922.17835,2.63226.49069,3.16769,1.16a1.3546,1.3546,0,0,1,.4462,1.07089V422.103a1.98073,1.98073,0,0,1-.803,1.38327,4.14811,4.14811,0,0,1-2.49878.8031c-.22305,0-.35684.04446-.58.04446H294.91525v3.88178Z" transform="translate(-217.50394 -345.08054)"/><path class="cls-2" d="M357.11191,421.47849c0,3.97076,2.98947,6.20162,8.968,6.64779.57995.0448,1.11541.0893,1.6954.0893H382.9455V424.3338h-15.304c-3.39081,0-4.68478-.84756-4.68478-2.90008V401.3559h-5.84482v20.12259Z" transform="translate(-217.50394 -345.08054)"/><path class="cls-2" d="M324.49652,421.65677V407.82541c0-3.5246,2.49844-5.66647,7.36185-6.33569.53546-.0445,1.07089-.089,1.56161-.089h11.065c.58026,0,1.07092.04455,1.65091.089,4.8634.66922,7.31732,2.81109,7.31732,6.33569v13.83136c0,2.85562-1.02613,4.37277-3.43561,5.39889l5.711,5.17551h-6.73712l-4.64029-4.19388-4.68482.26758H333.42a13.6331,13.6331,0,0,1-3.39084-.4462c-3.70343-1.02612-5.53262-2.98938-5.53262-6.2019Zm6.29093-.3121a3.51078,3.51078,0,0,0,.13406.58c.3121,1.60611,1.82919,2.49845,4.14935,2.49845h5.26477l-4.8186-4.37241h6.73712l4.23865,3.83694a2.79034,2.79034,0,0,0,1.47256-1.87368,2.55077,2.55077,0,0,0,.04453-.58023V408.18228a2.17433,2.17433,0,0,0-.04453-.53515c-.31234-1.51713-1.82943-2.36493-4.10479-2.36493h-8.78971c-2.58774,0-4.28341,1.11541-4.28341,2.90008v13.16239Z" transform="translate(-217.50394 -345.08054)"/><path class="cls-2" d="M385.62253,428.26038h.84756v-3.25733h1.11542v-.66925h-3.1232v.66925h1.16022v3.25733Zm6.46951,0h.803V424.3338h-1.20471l-.98163,2.67706-1.07068-2.67706h-1.16022v3.92658h.75855V425.271h.04455l1.11542,2.98941h.58026L392.092,425.271h0v2.98941Z" transform="translate(-217.50394 -345.08054)"/></svg>